#!OML:ASF F:\twosubjects\two\Thursday\Session 1\Rory.ASF
:FULLY-SPECIFIED
:DEGREES
862
root 11.4451 18.9458 10.0259 -157.078 -81.903 161.377
lowerback -4.3035 -2.78809 -3.7293
upperback 0.74567 -3.49091 -1.44383
thorax 3.31341 -1.80205 0.345611
lowerneck 4.77663 -16.0385 -15.489
upperneck 16.1981 -25.7086 15.2163
head 8.24802 -12.9384 5.11788
rclavicle -2.0276e-014 -2.18663e-014
rhumerus -41.5808 32.347 -105.943
rradius 102.273
rwrist 13.3174
rhand -31.7008 33.6058
rfingers 7.12502
rthumb -4.95984 3.68382
lclavicle -2.0276e-014 -2.18663e-014
lhumerus -35.5503 -31.3672 96.7853
lradius 118.838
lwrist 7.2371
lhand -0.251189 33.7383
lfingers 7.12502
lthumb 25.3498 62.0734
rfemur -2.5215 8.97467 12.8368
rtibia 7.51668
rfoot -6.04759 -7.54328
rtoes -17.4225
lfemur -0.315193 -5.54389 -18.2453
ltibia 6.35411
lfoot -10.1046 12.4581
ltoes 15.7053
863
root 11.4423 18.9452 10.0158 -157.081 -81.8691 161.398
lowerback -4.32742 -2.70091 -3.67517
upperback 0.751941 -3.37488 -1.53506
thorax 3.32041 -1.74322 0.229361
lowerneck 4.84512 -16.1826 -15.2789
upperneck 15.9942 -25.8853 15.2604
head 8.17611 -13.0163 5.08819
rclavicle 3.3197e-014 2.0276e-014
rhumerus -41.357 32.263 -106.072
rradius 102.205
rwrist 13.2714
rhand -32.0291 33.4911
rfingers 7.12502
rthumb -5.27685 3.57676
lclavicle 3.3197e-014 2.0276e-014
lhumerus -35.6204 -32.1525 97.022
lradius 118.52
lwrist 6.40226
lhand -2.21429 33.3367
lfingers 7.12502
lthumb 23.4678 61.9254
rfemur -2.55658 8.9837 12.8716
rtibia 7.56651
rfoot -6.10752 -7.48626
rtoes -17.9219
lfemur -0.261007 -5.51126 -18.2149
ltibia 6.24418
lfoot -10.1258 12.4075
ltoes 15.7714
864
root 11.4384 18.9512 9.99886 -157.659 -81.8188 162.113
lowerback -4.44975 -2.59183 -3.6642
upperback 0.688114 -3.22564 -1.55846
thorax 3.31618 -1.66808 0.206745
lowerneck 5.12524 -16.277 -15.0499
upperneck 15.7075 -26.0117 15.3351
head 8.034 -13.0852 5.09875
rclavicle 1.2921e-014 1.31198e-014
rhumerus -41.9161 31.9801 -106.367
rradius 102.396
rwrist 13.7343
rhand -32.9086 33.5173
rfingers 7.12502
rthumb -6.12597 3.62585
lclavicle 1.2921e-014 1.31198e-014
lhumerus -35.7689 -32.9591 97.3585
lradius 118.339
lwrist 5.72499
lhand -3.2291 33.4018
lfingers 7.12502
lthumb 22.4941 62.1117
rfemur -2.66081 9.03484 13.018
rtibia 7.54803
rfoot -6.03244 -7.57856
rtoes -17.9853
lfemur -0.340612 -5.42125 -18.0733
ltibia 6.20382
lfoot -10.1687 12.4362
ltoes 14.8323
865
root 11.4393 18.9546 10.0074 -156.887 -81.9453 161.358
lowerback -4.37282 -2.60173 -3.48878
upperback 0.651591 -3.25191 -1.66712
thorax 3.21956 -1.67639 0.00088575
lowerneck 5.3842 -16.3056 -14.9131
upperneck 15.4266 -26.0676 15.5091
head 7.91278 -13.121 5.16019
rclavicle 2.60905e-015 -3.29983e-014
rhumerus -42.04 32.0358 -106.462
rradius 102.56
rwrist 14.0114
rhand -33.7247 33.2818
rfingers 7.12502
rthumb -6.91378 3.41465
lclavicle 2.60905e-015 -3.29983e-014
lhumerus -35.746 -33.5866 97.5541
lradius 118.116
lwrist 5.44744
lhand -3.97777 33.3371
lfingers 7.12502
lthumb 21.7753 62.1322
rfemur -2.64073 8.84888 12.931
rtibia 7.48774
rfoot -6.00297 -7.61489
rtoes -18.3977
lfemur -0.380532 -5.57943 -18.1838
ltibia 6.17471
lfoot -10.0494 12.5241
ltoes 15.0267
866
root 11.4367 18.9505 10.003 -156.799 -81.9477 161.024
lowerback -4.15055 -2.68715 -3.51924
upperback 0.757647 -3.37199 -1.64039
thorax 3.21101 -1.73759 0.0440264
lowerneck 5.32867 -16.2726 -15.0537
upperneck 15.2532 -26.0018 15.6464
head 7.89204 -13.0876 5.22651
rclavicle -9.44227e-016 -1.11319e-014
rhumerus -41.6619 32.5777 -106.287
rradius 102.535
rwrist 13.7249
rhand -33.4139 33.9228
rfingers 7.12502
rthumb -6.61375 4.04607
lclavicle -9.44227e-016 -1.11319e-014
lhumerus -35.5295 -33.8274 97.6456
lradius 117.656
lwrist 4.8878
lhand -4.98503 32.5844
lfingers 7.12502
lthumb 20.8078 61.4887
rfemur -2.27963 8.83456 12.9275
rtibia 7.3495
rfoot -6.04622 -7.52636
rtoes -18.2575
lfemur -0.0968354 -5.60848 -18.2755
ltibia 6.198
lfoot -9.96874 12.5436
ltoes 15.2094
867
root 11.4287 18.9469 9.97644 -157.947 -81.7957 161.91
lowerback -3.98084 -2.71276 -3.73833
upperback 0.840837 -3.40249 -1.52539
thorax 3.22265 -1.7582 0.287271
lowerneck 5.30972 -16.2097 -15.2075
upperneck 15.1523 -25.9034 15.7228
head 7.87656 -13.044 5.28368
rclavicle -3.2054e-014 -1.07344e-014
rhumerus -41.2109 32.7802 -106.288
rradius 102.334
rwrist 13.2402
rhand -32.3619 34.8447
rfingers 7.12502
rthumb -5.59818 4.93864
lclavicle -3.2054e-014 -1.07344e-014
lhumerus -35.4465 -34.0744 97.6645
lradius 117.215
lwrist 4.16694
lhand -5.99305 31.8335
lfingers 7.12502
lthumb 19.839 60.8409
rfemur -1.8791 9.03747 13.136
rtibia 7.2367
rfoot -6.09202 -7.48464
rtoes -17.5745
lfemur 0.327968 -5.42961 -18.1668
ltibia 6.12228
lfoot -9.99501 12.4991
ltoes 14.757
868
root 11.42 18.9535 9.95745 -157.575 -81.7482 161.478
lowerback -3.99169 -2.71987 -3.96117
upperback 0.800722 -3.40196 -1.53049
thorax 3.20032 -1.76166 0.40631
lowerneck 5.47868 -16.1738 -15.2697
upperneck 15.1333 -25.8871 15.7585
head 7.85253 -13.051 5.32234
rclavicle 2.17918e-014 2.38542e-014
rhumerus -40.9499 32.7421 -106.396
rradius 102.198
rwrist 12.9971
rhand -32.0478 35.1255
rfingers 7.12502
rthumb -5.29489 5.21168
lclavicle 2.17918e-014 2.38542e-014
lhumerus -35.5182 -34.3996 97.6985
lradius 117.01
lwrist 3.58129
lhand -6.67556 31.5697
lfingers 7.12502
lthumb 19.1828 60.6436
rfemur -1.76814 9.03277 13.1444
rtibia 7.24954
rfoot -6.08946 -7.46656
rtoes -17.4059
lfemur 0.580467 -5.41301 -18.1636
ltibia 5.91117
lfoot -10.2188 12.2893
ltoes 16.8712
869
root 11.4109 18.9603 9.94951 -156.078 -81.7909 160.057
lowerback -4.20541 -2.75995 -4.16144
upperback 0.796687 -3.43341 -1.56888
thorax 3.32746 -1.78264 0.464208
lowerneck 5.47414 -16.1939 -15.3179
upperneck 15.1669 -25.9275 15.7699
head 7.87959 -13.071 5.32327
rclavicle 2.75068e-014 4.77083e-015
rhumerus -41.1145 32.9566 -106.435
rradius 102.312
rwrist 12.954
rhand -32.3316 35.1078
rfingers 7.12502
rthumb -5.56887 5.20102
lclavicle 2.75068e-014 4.77083e-015
lhumerus -35.3549 -34.626 97.7384
lradius 116.837
lwrist 3.05312
lhand -7.26269 31.1894
lfingers 7.12502
lthumb 18.6182 60.3184
rfemur -1.82245 8.87957 12.9671
rtibia 7.28594
rfoot -6.08071 -7.45793
rtoes -17.2044
lfemur 0.606292 -5.53112 -18.3011
ltibia 5.77781
lfoot -10.4302 12.184
ltoes 17.5936
870
root 11.4055 18.9564 9.94477 -155.041 -81.7922 159.067
lowerback -4.31664 -2.786 -4.28198
upperback 0.805292 -3.45492 -1.60238
thorax 3.4052 -1.7968 0.488546
lowerneck 5.47266 -16.2372 -15.286
upperneck 15.062 -25.9684 15.7973
head 7.8517 -13.0882 5.32292
rclavicle -1.09332e-014 -7.15625e-015
rhumerus -40.9787 33.3086 -106.412
rradius 102.371
rwrist 12.5025
rhand -31.9917 34.8166
rfingers 7.12502
rthumb -5.24069 4.90138
lclavicle -1.09332e-014 -7.15625e-015
lhumerus -35.0443 -34.8193 97.6865
lradius 116.774
lwrist 3.13417
lhand -7.25318 30.4988
lfingers 7.12502
lthumb 18.6273 59.6269
rfemur -1.83002 8.78861 12.8215
rtibia 7.2394
rfoot -6.22562 -7.44846
rtoes -16.3756
lfemur 0.479373 -5.5885 -18.4691
ltibia 5.8077
lfoot -10.4335 12.5369
ltoes 16.6446
871
root 11.4056 18.9546 9.94214 -155.157 -81.8187 159.258
lowerback -4.31241 -2.80323 -4.19584
upperback 0.758155 -3.48449 -1.58931
thorax 3.35072 -1.80855 0.45391
lowerneck 5.62746 -16.2642 -15.2944
upperneck 14.8612 -26.0002 15.875
head 7.77703 -13.1129 5.36225
rclavicle -4.62671e-014 9.54166e-015
rhumerus -40.5543 33.895 -106.291
rradius 102.405
rwrist 11.6861
rhand -31.176 34.0182
rfingers 7.12502
rthumb -4.45313 4.08498
lclavicle -4.62671e-014 9.54166e-015
lhumerus -34.7776 -34.9999 97.6558
lradius 116.694
lwrist 3.10528
lhand -7.39656 29.8167
lfingers 7.12502
lthumb 18.4894 58.958
rfemur -1.91656 8.74269 12.8339
rtibia 7.2034
rfoot -6.23836 -7.42359
rtoes -16.422
lfemur 0.324244 -5.59821 -18.4495
ltibia 5.85415
lfoot -10.3902 12.8114
ltoes 17.7357
872
root 11.4068 18.9591 9.93378 -156.374 -81.9051 160.527
lowerback -4.27909 -2.83613 -4.03296
upperback 0.731731 -3.54055 -1.49606
thorax 3.30268 -1.83242 0.457997
lowerneck 5.73391 -16.2762 -15.402
upperneck 14.681 -26.0204 15.9972
head 7.73523 -13.131 5.42281
rclavicle -9.21864e-015 1.63003e-014
rhumerus -40.5487 34.4434 -106.412
rradius 102.465
rwrist 11.3492
rhand -31.2307 33.3787
rfingers 7.12502
rthumb -4.50588 3.44662
lclavicle -9.21864e-015 1.63003e-014
lhumerus -34.4767 -35.1932 97.6203
lradius 116.377
lwrist 2.20851
lhand -8.63147 29.5054
lfingers 7.12502
lthumb 17.3012 58.7553
rfemur -1.95295 8.71061 13.0591
rtibia 7.13456
rfoot -6.05616 -7.31383
rtoes -15.9631
lfemur 0.279783 -5.60109 -18.169
ltibia 5.96627
lfoot -10.4701 12.5174
ltoes 18.363
873
root 11.4027 18.9622 9.91709 -157.111 -81.9058 161.249
lowerback -4.26719 -2.90262 -4.04226
upperback 0.714841 -3.63076 -1.42863
thorax 3.28714 -1.87722 0.526674
lowerneck 5.68076 -16.2483 -15.5187
upperneck 14.665 -25.9668 15.9857
head 7.74359 -13.107 5.43595
rclavicle -4.30617e-014 -9.14409e-015
rhumerus -40.9942 34.7074 -106.807
rradius 102.502
rwrist 11.8377
rhand -32.8143 33.0868
rfingers 7.12502
rthumb -6.03493 3.19272
lclavicle -4.30617e-014 -9.14409e-015
lhumerus -34.2571 -35.1865 97.5699
lradius 116.129
lwrist 1.36408
lhand -9.52667 29.3791
lfingers 7.12502
lthumb 16.4394 58.7026
rfemur -1.7444 8.73011 13.2202
rtibia 6.79684
rfoot -5.85342 -7.16652
rtoes -14.9171
lfemur 0.210848 -5.5598 -17.9933
ltibia 6.31202
lfoot -10.7119 12.1834
ltoes 18.2271
874
root 11.396 18.9624 9.90366 -157.707 -81.8759 161.798
lowerback -4.25397 -2.92177 -4.02328
upperback 0.701558 -3.6587 -1.40572
thorax 3.2674 -1.8904 0.538763
lowerneck 5.63055 -16.2228 -15.5241
upperneck 14.7057 -25.9164 15.9155
head 7.74732 -13.0823 5.41747
rclavicle 5.92875e-014 -1.98785e-015
rhumerus -41.1386 34.7737 -106.917
rradius 102.614
rwrist 11.8463
rhand -33.3922 33.2331
rfingers 7.12502
rthumb -6.59285 3.35577
lclavicle 5.92875e-014 -1.98785e-015
lhumerus -34.1664 -35.187 97.6324
lradius 115.985
lwrist 0.76886
lhand -9.57048 29.0334
lfingers 7.12502
lthumb 16.3972 58.3603
rfemur -1.50538 8.77007 13.3404
rtibia 6.46856
rfoot -5.74502 -7.19365
rtoes -15.187
lfemur 0.186081 -5.50257 -17.9027
ltibia 6.58987
lfoot -10.9467 12.0933
ltoes 18.5601
875
root 11.3908 18.9641 9.89588 -158.447 -81.918 162.47
lowerback -4.20074 -2.88561 -3.75757
upperback 0.721857 -3.62462 -1.52464
thorax 3.23229 -1.8679 0.274489
lowerneck 5.64495 -16.2197 -15.2222
upperneck 14.6257 -25.9019 15.948
head 7.67996 -13.0667 5.39931
rclavicle 2.38045e-014 1.82882e-014
rhumerus -41.1015 34.5472 -106.925
rradius 102.931
rwrist 10.8387
rhand -31.8444 34.1783
rfingers 7.12502
rthumb -5.09854 4.25965
lclavicle 2.38045e-014 1.82882e-014
lhumerus -33.9335 -35.5235 97.3573
lradius 115.88
lwrist 0.512159
lhand -9.17705 28.6683
lfingers 7.12502
lthumb 16.776 57.9636
rfemur -1.42947 8.75298 13.5002
rtibia 6.51863
rfoot -5.83735 -7.27481
rtoes -15.7793
lfemur 0.354218 -5.51006 -17.7532
ltibia 6.56906
lfoot -11.2821 11.922
ltoes 19.5691
876
root 11.3867 18.9595 9.89128 -157.949 -81.9708 161.927
lowerback -4.21797 -2.85122 -3.53373
upperback 0.743642 -3.58591 -1.76411
thorax 3.23361 -1.84423 -0.0941179
lowerneck 5.7006 -16.2217 -14.8559
upperneck 14.5239 -25.9139 16.0527
head 7.60491 -13.0636 5.39626
rclavicle 2.33075e-014 1.51076e-014
rhumerus -41.6588 34.2054 -107.098
rradius 103.453
rwrist 10.1301
rhand -30.4304 34.1571
rfingers 7.12502
rthumb -3.73308 4.21002
lclavicle 2.33075e-014 1.51076e-014
lhumerus -33.5736 -35.918 96.8263
lradius 115.874
lwrist 0.54416
lhand -8.2821 28.1536
lfingers 7.12502
lthumb 17.6374 57.3736
rfemur -1.44 8.65755 13.4595
rtibia 6.72372
rfoot -6.00772 -7.19605
rtoes -15.4332
lfemur 0.444943 -5.58964 -17.8036
ltibia 6.4417
lfoot -11.0556 12.0982
ltoes 17.6829
